# xmcd
#
# Track frame offsets:
#	150
#	18549
#	43378
#	57965
#	75198
#
# Disc length: 1213 seconds
#
# Revision: 0
# Processed by: cddbd v1.5.2PL0 Copyright (c) Steve Scherf et al.
# Submitted via: EasyCDDAExtractor 11.0.0.1
#
DISCID=3604bb05
DTITLE=ΣΑΜΟΛΑΔΑΣ ΑΡΗΣ - Η ΠΡΩΤΗ ΜΕΡΑ
DYEAR=2002
DGENRE=ΛΑΪΚΑ
TTITLE0=Σαμολαδάς Άρης_01 Δεν θά 'σαι καλά
TTITLE1=Σαμολαδάς Άρης_02 Στεναγμέ μου
TTITLE2=Σαμολαδάς Άρης_03 Τι σου έκανα
TTITLE3=Σαμολαδάς Άρης_04 Η πρώτη μέρα
TTITLE4=Σαμολαδάς Άρης_05 Κουρασμένα Σάββατα
EXTD=
EXTT0=
EXTT1=
EXTT2=
EXTT3=
EXTT4=
PLAYORDER=
